<?xml version="1.0" encoding="UTF-8"?>
<svg id="Layer_1" data-name="Layer 1" xmlns="http://www.w3.org/2000/svg" viewBox="0 0 398.31 58.23">
  <defs>
    <style>
      .cls-1, .cls-2 {
        fill: #3a5b7b;
      }

      .cls-2 {
        fill-rule: evenodd;
      }
    </style>
  </defs>
  <g>
    <g>
      <path class="cls-1" d="M90.09,45.35c-1.69,0-3.23-.24-4.62-.71-1.38-.47-2.59-1.12-3.62-1.95-1.03-.83-1.9-1.77-2.6-2.85l-.62,4.77h-5.58V0h6.2v18.28c1.03-1.57,2.45-2.9,4.24-4,1.8-1.09,4-1.64,6.6-1.64,2.97,0,5.6.71,7.87,2.14,2.27,1.42,4.04,3.37,5.3,5.82,1.26,2.46,1.89,5.26,1.89,8.39s-.63,5.95-1.89,8.42c-1.26,2.48-3.03,4.42-5.3,5.82-2.27,1.4-4.89,2.11-7.87,2.11ZM89.1,39.96c1.86,0,3.53-.46,5.02-1.39,1.49-.93,2.64-2.2,3.47-3.81.83-1.61,1.24-3.53,1.24-5.76s-.41-4.11-1.24-5.76c-.83-1.65-1.98-2.93-3.47-3.84-1.49-.91-3.16-1.36-5.02-1.36-1.98,0-3.71.46-5.17,1.39-1.47.93-2.6,2.22-3.41,3.87-.81,1.65-1.21,3.55-1.21,5.7s.4,4.15,1.21,5.76,1.94,2.88,3.41,3.81c1.47.93,3.19,1.39,5.17,1.39Z"/>
      <path class="cls-1" d="M120.14,45.35c-2.4,0-4.5-.5-6.32-1.49-1.82-.99-3.2-2.48-4.15-4.46-.95-1.98-1.42-4.48-1.42-7.5V13.38h6.2v17.84c0,2.97.63,5.19,1.89,6.66,1.26,1.47,3.11,2.2,5.54,2.2,1.61,0,3.06-.39,4.34-1.18,1.28-.78,2.3-1.91,3.07-3.38.76-1.47,1.15-3.27,1.15-5.42V13.38h6.19v31.22h-5.58l-.37-5.33c-.95,1.9-2.34,3.39-4.18,4.46-1.84,1.07-3.96,1.61-6.35,1.61Z"/>
      <path class="cls-1" d="M155.76,45.35c-2.97,0-5.65-.68-8.02-2.04-2.38-1.36-4.22-3.28-5.54-5.76-1.32-2.48-1.98-5.29-1.98-8.42,0-3.3.66-6.18,1.98-8.64,1.32-2.46,3.17-4.38,5.54-5.76,2.38-1.38,5.05-2.08,8.02-2.08,3.84,0,7.03.99,9.57,2.97s4.16,4.65,4.86,7.99h-6.44c-.41-1.78-1.35-3.16-2.82-4.15s-3.21-1.49-5.23-1.49c-1.65,0-3.18.41-4.58,1.24-1.41.83-2.52,2.05-3.35,3.69s-1.24,3.67-1.24,6.1c0,1.78.24,3.37.71,4.77.47,1.4,1.13,2.56,1.95,3.47.83.91,1.81,1.61,2.94,2.11,1.14.5,2.32.74,3.56.74,1.32,0,2.55-.23,3.69-.68,1.14-.45,2.08-1.1,2.82-1.95.74-.85,1.26-1.87,1.55-3.07h6.44c-.7,3.26-2.33,5.91-4.89,7.93-2.56,2.02-5.74,3.04-9.54,3.04Z"/>
      <path class="cls-1" d="M173.72,44.6V0h6.19v44.6h-6.19ZM193.36,44.6l-14.37-17.1,13.07-14.12h7.43l-15.42,16.48-.06-4.58,17.16,19.33h-7.81Z"/>
      <polygon class="cls-1" points="232.58 13.38 212.75 58.23 206.25 58.23 212.97 43.16 212.07 41.14 209.7 35.81 199.74 13.38 206.5 13.38 216.22 36.06 226.07 13.38 232.58 13.38"/>
    </g>
    <g>
      <path class="cls-2" d="M29.11,29.11v29.1l29.11-29.1h-29.11Z"/>
      <polygon class="cls-2" points="29.11 29.11 0 58.22 0 29.11 29.11 29.11"/>
      <polygon class="cls-2" points="29.11 0 0 29.11 0 0 29.11 0"/>
      <polygon class="cls-2" points="58.23 0 29.11 29.11 29.11 0 58.23 0"/>
    </g>
  </g>
  <g>
    <path class="cls-1" d="M263.93,26.15c0,.79-.23,1.4-.68,1.86-.45.45-1.18.68-2.19.68h-2.74v-5.05h2.74c1.01,0,1.74.22,2.19.66s.68,1.07.68,1.85Z"/>
    <path class="cls-1" d="M272.93,24.55l-2.29,6.51h4.58l-2.29-6.51ZM272.93,24.55l-2.29,6.51h4.58l-2.29-6.51ZM272.93,24.55l-2.29,6.51h4.58l-2.29-6.51ZM289.26,24.37c-.45-.46-1.16-.68-2.15-.68h-2.67v5.06h2.7c.95,0,1.66-.24,2.11-.71.46-.47.68-1.09.68-1.85s-.23-1.36-.68-1.81ZM289.26,24.37c-.45-.46-1.16-.68-2.15-.68h-2.67v5.06h2.7c.95,0,1.66-.24,2.11-.71.46-.47.68-1.09.68-1.85s-.23-1.36-.68-1.81ZM272.93,24.55l-2.29,6.51h4.58l-2.29-6.51ZM272.93,24.55l-2.29,6.51h4.58l-2.29-6.51ZM289.26,24.37c-.45-.46-1.16-.68-2.15-.68h-2.67v5.06h2.7c.95,0,1.66-.24,2.11-.71.46-.47.68-1.09.68-1.85s-.23-1.36-.68-1.81ZM289.26,24.37c-.45-.46-1.16-.68-2.15-.68h-2.67v5.06h2.7c.95,0,1.66-.24,2.11-.71.46-.47.68-1.09.68-1.85s-.23-1.36-.68-1.81ZM272.93,24.55l-2.29,6.51h4.58l-2.29-6.51ZM272.93,24.55l-2.29,6.51h4.58l-2.29-6.51ZM289.26,24.37c-.45-.46-1.16-.68-2.15-.68h-2.67v5.06h2.7c.95,0,1.66-.24,2.11-.71.46-.47.68-1.09.68-1.85s-.23-1.36-.68-1.81ZM331.5,24.37c-.45-.46-1.17-.68-2.15-.68h-2.67v5.06h2.69c.95,0,1.66-.24,2.11-.71.46-.47.68-1.09.68-1.85s-.23-1.36-.67-1.81ZM343.31,24.55l-2.29,6.51h4.58l-2.29-6.51ZM343.31,24.55l-2.29,6.51h4.58l-2.29-6.51ZM331.5,24.37c-.45-.46-1.17-.68-2.15-.68h-2.67v5.06h2.69c.95,0,1.66-.24,2.11-.71.46-.47.68-1.09.68-1.85s-.23-1.36-.67-1.81ZM289.26,24.37c-.45-.46-1.16-.68-2.15-.68h-2.67v5.06h2.7c.95,0,1.66-.24,2.11-.71.46-.47.68-1.09.68-1.85s-.23-1.36-.68-1.81ZM272.93,24.55l-2.29,6.51h4.58l-2.29-6.51ZM272.93,24.55l-2.29,6.51h4.58l-2.29-6.51ZM289.26,24.37c-.45-.46-1.16-.68-2.15-.68h-2.67v5.06h2.7c.95,0,1.66-.24,2.11-.71.46-.47.68-1.09.68-1.85s-.23-1.36-.68-1.81ZM331.5,24.37c-.45-.46-1.17-.68-2.15-.68h-2.67v5.06h2.69c.95,0,1.66-.24,2.11-.71.46-.47.68-1.09.68-1.85s-.23-1.36-.67-1.81ZM343.31,24.55l-2.29,6.51h4.58l-2.29-6.51ZM361.72,26.23c-.33-.8-.88-1.42-1.64-1.86-.77-.44-1.8-.66-3.1-.66h-2.18v10.78h2.18c1.3,0,2.33-.21,3.1-.64.76-.42,1.31-1.04,1.64-1.85.33-.8.49-1.76.49-2.87s-.16-2.1-.49-2.9ZM361.72,26.23c-.33-.8-.88-1.42-1.64-1.86-.77-.44-1.8-.66-3.1-.66h-2.18v10.78h2.18c1.3,0,2.33-.21,3.1-.64.76-.42,1.31-1.04,1.64-1.85.33-.8.49-1.76.49-2.87s-.16-2.1-.49-2.9ZM343.31,24.55l-2.29,6.51h4.58l-2.29-6.51ZM331.5,24.37c-.45-.46-1.17-.68-2.15-.68h-2.67v5.06h2.69c.95,0,1.66-.24,2.11-.71.46-.47.68-1.09.68-1.85s-.23-1.36-.67-1.81ZM289.26,24.37c-.45-.46-1.16-.68-2.15-.68h-2.67v5.06h2.7c.95,0,1.66-.24,2.11-.71.46-.47.68-1.09.68-1.85s-.23-1.36-.68-1.81ZM272.93,24.55l-2.29,6.51h4.58l-2.29-6.51ZM247.87,13.38v31.47h150.44V13.38h-150.44ZM264.25,30.18c-.8.43-1.81.65-3.06.65h-2.87v5.89h-2.6v-15.19h5.47c1.21,0,2.23.2,3.02.62.81.42,1.4.96,1.79,1.66.38.69.57,1.49.57,2.38,0,.84-.19,1.6-.56,2.3-.37.7-.96,1.27-1.76,1.7ZM277.21,36.71l-1.26-3.59h-6.03l-1.26,3.59h-2.74l5.58-15.19h2.9l5.56,15.19h-2.76ZM289.76,36.71l-2.87-6.04h-2.45v6.04h-2.6v-15.19h5.44c1.22,0,2.22.2,3,.62s1.36.96,1.75,1.65c.38.69.57,1.46.57,2.34,0,.81-.19,1.56-.56,2.25-.38.69-.96,1.25-1.75,1.67-.22.11-.45.22-.7.3l3.16,6.36h-2.99ZM303.61,36.71l-4.43-7.17-1.5,1.63v5.54h-2.61v-15.19h2.61v6.27l5.76-6.27h3.21l-5.6,6.03,5.76,9.16h-3.19ZM321.52,36.71h-2.41l-.2-2.09c-.33.49-.72.92-1.15,1.27-.43.36-.94.62-1.53.8-.59.18-1.28.28-2.07.28-1.44,0-2.69-.33-3.76-.98-1.07-.65-1.9-1.56-2.5-2.72-.59-1.17-.88-2.53-.88-4.09s.3-2.92.91-4.12,1.48-2.12,2.62-2.8c1.14-.68,2.48-1.01,4.02-1.01,1.77,0,3.23.42,4.41,1.27,1.17.85,1.92,2.02,2.25,3.53h-2.93c-.22-.75-.64-1.33-1.27-1.76-.63-.42-1.46-.63-2.47-.63s-1.91.23-2.64.67c-.74.44-1.3,1.07-1.68,1.91-.39.83-.58,1.82-.58,2.96s.2,2.13.59,2.96c.39.82.94,1.45,1.65,1.87.71.43,1.54.64,2.5.64,1.42,0,2.49-.4,3.22-1.2.72-.79,1.15-1.83,1.28-3.1h-3.94v-1.98h6.56v8.32ZM331.99,36.71l-2.87-6.04h-2.44v6.04h-2.61v-15.19h5.45c1.21,0,2.21.2,2.99.62.79.42,1.37.96,1.75,1.65.38.69.57,1.46.57,2.34,0,.81-.18,1.56-.56,2.25-.37.69-.95,1.25-1.74,1.67-.22.11-.46.22-.71.3l3.17,6.36h-3ZM347.58,36.71l-1.26-3.59h-6.03l-1.26,3.59h-2.74l5.58-15.19h2.9l5.56,15.19h-2.76ZM364.05,33.14c-.55,1.14-1.41,2.01-2.57,2.63-1.14.62-2.61.94-4.37.94h-4.91v-15.19h4.91c1.76,0,3.22.3,4.37.93,1.15.62,2.01,1.51,2.57,2.64.55,1.14.83,2.48.83,4.05s-.28,2.87-.83,4ZM377.01,23.62h-7.2v4.36h6.55v2.06h-6.55v4.56h7.2v2.11h-9.81v-15.19h9.81v2.11ZM387.46,36.71l-2.87-6.04h-2.45v6.04h-2.6v-15.19h5.44c1.22,0,2.22.2,3,.62.78.42,1.36.96,1.75,1.65.38.69.57,1.46.57,2.34,0,.81-.19,1.56-.56,2.25-.38.69-.96,1.25-1.75,1.67-.22.11-.45.22-.7.3l3.16,6.36h-2.99ZM386.95,24.37c-.45-.46-1.16-.68-2.15-.68h-2.67v5.06h2.7c.95,0,1.66-.24,2.11-.71.46-.47.68-1.09.68-1.85s-.23-1.36-.68-1.81ZM360.09,24.37c-.77-.44-1.8-.66-3.1-.66h-2.18v10.78h2.18c1.3,0,2.33-.21,3.1-.64.76-.42,1.31-1.04,1.64-1.85.33-.8.49-1.76.49-2.87s-.16-2.1-.49-2.9c-.33-.8-.88-1.42-1.64-1.86ZM341.02,31.06h4.58l-2.29-6.51-2.29,6.51ZM331.5,24.37c-.45-.46-1.17-.68-2.15-.68h-2.67v5.06h2.69c.95,0,1.66-.24,2.11-.71.46-.47.68-1.09.68-1.85s-.23-1.36-.67-1.81ZM289.26,24.37c-.45-.46-1.16-.68-2.15-.68h-2.67v5.06h2.7c.95,0,1.66-.24,2.11-.71.46-.47.68-1.09.68-1.85s-.23-1.36-.68-1.81ZM270.65,31.06h4.58l-2.29-6.51-2.29,6.51ZM272.93,24.55l-2.29,6.51h4.58l-2.29-6.51ZM289.26,24.37c-.45-.46-1.16-.68-2.15-.68h-2.67v5.06h2.7c.95,0,1.66-.24,2.11-.71.46-.47.68-1.09.68-1.85s-.23-1.36-.68-1.81ZM331.5,24.37c-.45-.46-1.17-.68-2.15-.68h-2.67v5.06h2.69c.95,0,1.66-.24,2.11-.71.46-.47.68-1.09.68-1.85s-.23-1.36-.67-1.81ZM343.31,24.55l-2.29,6.51h4.58l-2.29-6.51ZM361.72,26.23c-.33-.8-.88-1.42-1.64-1.86-.77-.44-1.8-.66-3.1-.66h-2.18v10.78h2.18c1.3,0,2.33-.21,3.1-.64.76-.42,1.31-1.04,1.64-1.85.33-.8.49-1.76.49-2.87s-.16-2.1-.49-2.9ZM361.72,26.23c-.33-.8-.88-1.42-1.64-1.86-.77-.44-1.8-.66-3.1-.66h-2.18v10.78h2.18c1.3,0,2.33-.21,3.1-.64.76-.42,1.31-1.04,1.64-1.85.33-.8.49-1.76.49-2.87s-.16-2.1-.49-2.9ZM343.31,24.55l-2.29,6.51h4.58l-2.29-6.51ZM331.5,24.37c-.45-.46-1.17-.68-2.15-.68h-2.67v5.06h2.69c.95,0,1.66-.24,2.11-.71.46-.47.68-1.09.68-1.85s-.23-1.36-.67-1.81ZM289.26,24.37c-.45-.46-1.16-.68-2.15-.68h-2.67v5.06h2.7c.95,0,1.66-.24,2.11-.71.46-.47.68-1.09.68-1.85s-.23-1.36-.68-1.81ZM272.93,24.55l-2.29,6.51h4.58l-2.29-6.51ZM272.93,24.55l-2.29,6.51h4.58l-2.29-6.51ZM289.26,24.37c-.45-.46-1.16-.68-2.15-.68h-2.67v5.06h2.7c.95,0,1.66-.24,2.11-.71.46-.47.68-1.09.68-1.85s-.23-1.36-.68-1.81ZM331.5,24.37c-.45-.46-1.17-.68-2.15-.68h-2.67v5.06h2.69c.95,0,1.66-.24,2.11-.71.46-.47.68-1.09.68-1.85s-.23-1.36-.67-1.81ZM331.5,24.37c-.45-.46-1.17-.68-2.15-.68h-2.67v5.06h2.69c.95,0,1.66-.24,2.11-.71.46-.47.68-1.09.68-1.85s-.23-1.36-.67-1.81ZM289.26,24.37c-.45-.46-1.16-.68-2.15-.68h-2.67v5.06h2.7c.95,0,1.66-.24,2.11-.71.46-.47.68-1.09.68-1.85s-.23-1.36-.68-1.81ZM272.93,24.55l-2.29,6.51h4.58l-2.29-6.51ZM272.93,24.55l-2.29,6.51h4.58l-2.29-6.51ZM289.26,24.37c-.45-.46-1.16-.68-2.15-.68h-2.67v5.06h2.7c.95,0,1.66-.24,2.11-.71.46-.47.68-1.09.68-1.85s-.23-1.36-.68-1.81ZM289.26,24.37c-.45-.46-1.16-.68-2.15-.68h-2.67v5.06h2.7c.95,0,1.66-.24,2.11-.71.46-.47.68-1.09.68-1.85s-.23-1.36-.68-1.81ZM272.93,24.55l-2.29,6.51h4.58l-2.29-6.51ZM272.93,24.55l-2.29,6.51h4.58l-2.29-6.51ZM272.93,24.55l-2.29,6.51h4.58l-2.29-6.51Z"/>
  </g>
</svg>